PathFileType	4	(X/Y/Z)	 s07c0302.trc
DataRate	CameraRate	NumFrames	NumMarkers	Units	OrigDataRate	OrigDataStartFrame	OrigNumFrames
200	200	4	48	mm	200	1751	2000
Frame#	Time	racr			lacr			c7			jug			rlel			rdr			llel			ldr			s2			lic			ric			lasi			rasi			rpsi			lpsi			rgt			lgt			rth1			rth2			rth3			rth4			rlfc			rmfc			rsh1			rsh2			rsh3			rsh4			rlmal			rcal			rtoe			rmt5			lth1			lth2			lth4			lth3			llfc			lmfc			lsh1			lsh2			lsh3			lsh4			llmal			lcal			ltoe			lmt5			SBIKE			LBIKE			RBIKE			
		X1	Y1	Z1	X2	Y2	Z2	X3	Y3	Z3	X4	Y4	Z4	X5	Y5	Z5	X6	Y6	Z6	X7	Y7	Z7	X8	Y8	Z8	X9	Y9	Z9	X10	Y10	Z10	X11	Y11	Z11	X12	Y12	Z12	X13	Y13	Z13	X14	Y14	Z14	X15	Y15	Z15	X16	Y16	Z16	X17	Y17	Z17	X18	Y18	Z18	X19	Y19	Z19	X20	Y20	Z20	X21	Y21	Z21	X22	Y22	Z22	X23	Y23	Z23	X24	Y24	Z24	X25	Y25	Z25	X26	Y26	Z26	X27	Y27	Z27	X28	Y28	Z28	X29	Y29	Z29	X30	Y30	Z30	X31	Y31	Z31	X32	Y32	Z32	X33	Y33	Z33	X34	Y34	Z34	X35	Y35	Z35	X36	Y36	Z36	X37	Y37	Z37	X38	Y38	Z38	X39	Y39	Z39	X40	Y40	Z40	X41	Y41	Z41	X42	Y42	Z42	X43	Y43	Z43	X44	Y44	Z44	X45	Y45	Z45	X46	Y46	Z46	X47	Y47	Z47	X48	Y48	Z48	
1751	8.7550	429.084318	1451.878903	-81.488511	424.342041	1437.231945	-352.077720	375.904775	1500.823968	-220.930519	354.605455	1358.907309	-214.879509	544.917289	1136.082739	-11.377799	728.709661	904.638525	-59.793801	545.199009	1129.585372	-418.458744	736.053564	900.611784	-389.483149	-161.586330	1202.504683	-243.659119	8.057190	1256.497407	-371.058275	-3.878434	1253.367814	-79.061112	39.431852	1180.763489	-345.139868	11.336520	1197.824928	-97.312443	-140.550774	1242.773733	-190.042785	-118.771745	1251.616186	-296.781938	-63.470835	1128.256845	-37.162547	-45.502921	1098.640184	-405.097921	78.943286	1077.411641	-24.311481	166.131978	1065.997826	-26.303380	236.048949	1018.225888	-15.158896	178.702864	1096.923968	-43.679978	352.690697	935.728897	-41.667223	356.939373	928.351952	-149.140367	264.950378	824.202692	-32.020088	224.336229	750.113043	-58.150517	150.505290	702.630273	-63.648830	239.203959	745.207877	-96.336249	52.398333	612.408170	-78.052203	-21.690091	614.281576	-110.818481	209.446491	437.465249	-120.929890	126.839756	454.592599	-51.013542	13.219341	989.932212	-417.752289	80.917454	933.217693	-417.766822	110.407501	953.629891	-408.787805	110.985452	849.509533	-413.371767	212.197354	705.654009	-375.731022	201.860304	685.992753	-283.780733	187.948362	563.653149	-403.735142	199.177130	480.414210	-385.450210	169.307156	395.324181	-394.255828	201.117725	482.839701	-343.565679	144.138504	263.511518	-392.998139	76.496243	224.071034	-361.441830	365.758038	203.771094	-353.725599	289.266536	175.283410	-413.998506	-259.093787	968.722031	-232.850252	-75.678315	83.356805	-437.425674	-82.255335	79.536004	-39.969508	
1752	8.7600	429.212938	1451.908114	-80.820781	424.940508	1437.417087	-351.695072	376.443494	1501.009084	-220.382702	354.886349	1359.319575	-214.470364	544.850104	1136.039825	-11.498362	728.596728	904.625246	-59.841193	545.351777	1129.509562	-417.763668	736.063982	900.518462	-389.364901	-160.744817	1202.538285	-243.372273	8.621179	1256.462878	-371.062697	-2.836935	1253.297306	-79.099905	40.071686	1180.620495	-345.384328	12.438663	1197.958751	-97.531288	-139.714831	1242.959118	-189.798588	-118.043946	1251.601385	-296.753270	-61.870440	1128.969999	-36.677290	-45.078034	1098.433565	-405.035843	80.616980	1079.976194	-24.653842	167.921440	1069.580595	-26.849635	238.434358	1022.702393	-15.508120	180.090231	1100.368295	-44.637644	355.615191	940.929528	-41.887602	359.840560	933.088898	-148.956063	268.836106	828.649808	-32.295847	228.790737	753.931072	-58.566763	155.010385	706.543556	-63.813777	243.179209	749.856999	-96.577376	57.258728	615.828872	-78.104897	-16.867641	616.883812	-111.153576	215.930557	442.241810	-120.993718	132.857696	458.570439	-51.187100	12.571482	989.050422	-417.797497	79.530693	931.498295	-417.800630	108.993614	951.214600	-407.901138	108.561566	847.350693	-413.595696	207.633172	702.274920	-375.770976	196.923355	682.587158	-283.811514	182.501217	560.663216	-403.874780	193.569985	477.389714	-385.710419	163.382953	392.371946	-394.465846	195.833213	479.529342	-343.712647	138.134256	260.422249	-393.011781	70.555965	220.898984	-361.173086	359.618823	199.711962	-353.779701	287.500995	169.535951	-412.976088	-259.084785	968.745569	-232.819308	-75.677689	83.347494	-437.447638	-82.251186	79.492675	-39.960917	
1753	8.7650	429.344445	1451.983153	-80.259592	425.593519	1437.613364	-351.288860	376.909690	1501.172681	-219.862655	355.242661	1359.576488	-214.140070	544.740698	1135.997358	-11.531269	728.568356	904.994846	-60.364219	545.463126	1129.500595	-417.210824	736.067060	900.461481	-389.255236	-159.929182	1202.610767	-243.019029	9.152878	1256.580855	-371.113191	-1.921660	1253.301331	-79.091642	40.526035	1180.524697	-345.586533	13.519505	1198.142063	-97.861017	-138.865516	1243.067661	-189.499694	-117.387356	1251.713311	-296.587059	-60.202134	1129.670155	-36.229334	-44.743910	1098.283469	-404.947723	82.262021	1082.416485	-24.969119	169.658282	1072.920832	-27.440606	240.656233	1027.182413	-15.751816	181.296619	1102.919065	-46.220198	358.507603	945.913810	-42.287366	362.718002	937.766010	-149.034237	272.741952	833.019083	-32.672166	232.970181	757.914274	-59.109699	159.608107	710.220571	-63.968975	247.402453	754.137199	-96.937935	62.406738	618.661811	-78.275046	-11.866908	619.079168	-111.013205	222.629020	446.828739	-120.988124	139.248223	462.613783	-51.144733	11.993567	988.215259	-417.817231	78.289906	929.916388	-417.787622	107.888045	949.277556	-407.611659	106.331706	845.496525	-413.926518	203.092822	699.201265	-375.880308	192.345202	679.594064	-283.807056	177.065966	557.873949	-403.936490	187.940704	474.537650	-385.965700	157.298167	389.672235	-394.552438	190.477670	476.528809	-343.865055	131.892348	257.410813	-392.601826	64.350844	218.754931	-361.551769	353.189133	195.899447	-353.958308	280.867929	166.064446	-413.054412	-259.070539	968.767832	-232.783539	-75.681346	83.345343	-437.435714	-82.239138	79.490765	-39.975154	
1754	8.7700	429.456392	1452.035356	-79.713430	426.149766	1437.799364	-350.900509	377.359547	1501.362228	-219.329994	355.623306	1359.844539	-213.748137	544.590295	1135.969486	-11.477755	728.482974	905.050949	-60.356362	545.588558	1129.539910	-416.677258	736.070532	900.368478	-389.107345	-159.193184	1202.704212	-242.630579	9.729647	1256.725230	-371.213726	-1.148974	1253.180481	-79.082122	41.026030	1180.473437	-345.792400	14.613701	1198.344494	-98.144883	-138.078698	1243.211728	-189.152050	-116.856682	1251.798744	-296.269977	-58.570665	1130.366150	-35.767815	-44.463132	1098.163316	-404.829059	83.880118	1084.801117	-25.247570	171.318108	1076.230878	-27.965714	242.852299	1031.333877	-16.257378	182.561139	1106.189843	-47.022623	361.355842	950.802968	-42.822072	365.562404	942.482122	-149.524592	276.661826	837.178452	-33.055519	237.434523	761.931620	-59.336231	164.029500	713.759955	-64.222451	251.699902	758.245914	-97.402939	67.481265	621.629250	-78.140848	-6.589883	621.111690	-110.980972	229.434530	451.148644	-121.042260	146.021839	466.035080	-51.122871	11.468771	987.604554	-417.883381	77.147306	928.669829	-417.836028	106.879279	947.677688	-407.270802	104.283612	843.993581	-414.294476	198.690645	696.375225	-376.105782	187.734993	676.756991	-283.927042	171.691366	555.511378	-404.086416	182.319306	472.065928	-386.162690	151.296932	387.305327	-394.626242	185.100161	473.769902	-343.735432	125.507195	254.958612	-392.411607	57.991592	216.491103	-361.264752	346.687251	192.345406	-353.957877	274.153472	162.844213	-413.131461	-259.074063	968.767361	-232.742742	-75.686720	83.340374	-437.430140	-82.247880	79.484770	-39.978861	
